                           888      888 888               888 888 
                           888      888 888               888 888 
                           888      888 888               888 888 
              .d88b.   .d88888  .d88888 88888b.   8888b.  888 888 
             d88""88b d88" 888 d88" 888 888 "88b     "88b 888 888 
             888  888 888  888 888  888 888  888 .d888888 888 888 
             Y88..88P Y88b 888 Y88b 888 888 d88P 888  888 888 888 
              "Y88P"   "Y88888  "Y88888 88888P"  "Y888888 888 888 
                                       -links.com 

88 Minutes is a 2007 American thriller film directed by Jon Avnet starring Al Pacino, Benjamin McKenzie, Alicia Witt, Leelee Sobieski, Deborah Kara Unger, Amy Brenneman and Neal McDonough. Filming began in the Vancouver area on October 8, 2005 and wrapped in December 2005. The film was released in various territories during 2007.




                                    +-+-+-+-+
                                    |c|a|s|t|
                                    +-+-+-+-+
                                         
                  Actor                              Role

                  Al Pacino ........................ Dr. Jack Gramm 

                  Alicia Witt ...................... Kim Cummings
 
                  Leelee Sobieski .................. Lauren Douglas/Lydia Doherty
 
                  Amy Brenneman .................... Shelly Barnes
 
                  William Forsythe ................. Special Agent Frank Parks
 
                  Deborah Kara Unger ............... Carol Johnson
 
                  Benjamin McKenzie ................ Mike Stempt
 
                  Neal McDonough ................... Jon Forster
 
                  Leah Cairns ...................... Sara Pollard 


General
Complete name                    : 88 Minutes 
Format                           : AVI
Format/Info                      : Audio Video Interleave
File size                        : 854 MiB
Duration                         : 1h 42mn
Overall bit rate                 : 1 164 Kbps

Video
Format                           : MPEG-4 Visual
Format profile                   : Streaming Video@L1
Format settings, BVOP            : Yes
Format settings, QPel            : No
Format settings, GMC             : No warppoints
Format settings, Matrix          : Default
Muxing mode                      : Packed bitstream
Codec ID                         : XVID
Codec ID/Hint                    : XviD
Duration                         : 1h 42mn
Bit rate                         : 960 Kbps
Width                            : 1 024 pixels
Height                           : 582 pixels
Display aspect ratio             : 16/9
Frame rate                       : 29.970 fps
Resolution                       : 24 bits
Colorimetry                      : 4:2:0
Scan type                        : Progressive
Bits/(Pixel*Frame)               : 0.054
Stream size                      : 704 MiB (82%)
Writing library                  : XviD 1.1.0 (UTC 2005-11-22)

Audio
Format                           : MPEG Audio
Format version                   : Version 1
Format profile                   : Layer 3
Codec ID                         : 55
Codec ID/Hint                    : MP3
Duration                         : 1h 42mn
Bit rate mode                    : Constant
Bit rate                         : 192 Kbps
Channel(s)                       : 2 channels
Sampling rate                    : 44.1 KHz
Resolution                       : 16 bits
Video delay                      : 26ms
Stream size                      : 141 MiB (16%)
Alignment                        : Split accross interleaves
Interleave, duration             : 33 ms (1.00 video frame)
Title                            : Audio Stream
Writing library                  : LAME3.92


For more oddball torrents  http://thepiratebay.org/user/oddball-links `                                                                                                            Please seed after downloading `                                                                                            :::===  :::===== :::===== :::====       :::= === :::====  :::====
        :::     :::      :::      :::  ===      :::===== :::  === :::====
         =====  ======   ======   ===  ===      ======== ===  ===   ===  
            === ===      ===      ===  ===      === ==== ===  ===   ===  
        ======  ======== ======== =======       ===  ===  ======    ===  
                                                                         
                  :::=====  :::====  :::===== :::===== :::==== 
                  :::       :::  === :::      :::      :::  ===
                  === ===== =======  ======   ======   ===  ===
                  ===   === === ===  ===      ===      ===  ===
                   =======  ===  === ======== ======== =======	